<svg xmlns="http://www.w3.org/2000/svg" viewBox="0 0 1760 1420" width="1760" height="1420" font-family="-apple-system,BlinkMacSystemFont,Segoe UI,Roboto,Helvetica,Arial,sans-serif">
<rect width="100%" height="100%" fill="#f7f8fa"/>
<text x="40" y="46" font-size="24" font-weight="700" fill="#15181d">CECS AI Learning Hub — Sơ đồ quan hệ cơ sở dữ liệu (PostgreSQL)</text>
<text x="40" y="70" font-size="13" fill="#6b7280">13 bảng · sinh trực tiếp từ schema đang chạy · Day 2 + migration 002 (quiz engine)</text>
<path d="M330,134.0 H332 V154.0 H380" fill="none" stroke="#2f7a68" stroke-width="1.5" stroke-linejoin="round" opacity=".8"/>
<circle cx="330" cy="134.0" r="3.4" fill="#2f7a68"/>
<g stroke="#2f7a68" stroke-width="1.6" fill="none" opacity=".95"><path d="M380,154.0 L371,147.0 M380,154.0 L371,154.0 M380,154.0 L371,161.0"/></g>
<path d="M330,374.0 H343 V174.0 H380" fill="none" stroke="#3b6fd4" stroke-width="1.5" stroke-linejoin="round" opacity=".8"/>
<circle cx="330" cy="374.0" r="3.4" fill="#3b6fd4"/>
<g stroke="#3b6fd4" stroke-width="1.6" fill="none" opacity=".95"><path d="M380,174.0 L371,167.0 M380,174.0 L371,174.0 M380,174.0 L371,181.0"/></g>
<path d="M40,134.0 H18 V454.0 H40" fill="none" stroke="#2f7a68" stroke-width="1.5" stroke-linejoin="round" opacity=".8"/>
<circle cx="40" cy="134.0" r="3.4" fill="#2f7a68"/>
<g stroke="#2f7a68" stroke-width="1.6" fill="none" opacity=".95"><path d="M40,454.0 L31,447.0 M40,454.0 L31,454.0 M40,454.0 L31,461.0"/></g>
<path d="M330,374.0 H354 V364.0 H380" fill="none" stroke="#3b6fd4" stroke-width="1.5" stroke-linejoin="round" opacity=".8"/>
<circle cx="330" cy="374.0" r="3.4" fill="#3b6fd4"/>
<g stroke="#3b6fd4" stroke-width="1.6" fill="none" opacity=".95"><path d="M380,364.0 L371,357.0 M380,364.0 L371,364.0 M380,364.0 L371,371.0"/></g>
<path d="M330,134.0 H332 V624.0 H380" fill="none" stroke="#2f7a68" stroke-width="1.5" stroke-linejoin="round" opacity=".8"/>
<circle cx="330" cy="134.0" r="3.4" fill="#2f7a68"/>
<g stroke="#2f7a68" stroke-width="1.6" fill="none" opacity=".95"><path d="M380,624.0 L371,617.0 M380,624.0 L371,624.0 M380,624.0 L371,631.0"/></g>
<path d="M330,374.0 H343 V644.0 H380" fill="none" stroke="#3b6fd4" stroke-width="1.5" stroke-linejoin="round" opacity=".8"/>
<circle cx="330" cy="374.0" r="3.4" fill="#3b6fd4"/>
<g stroke="#3b6fd4" stroke-width="1.6" fill="none" opacity=".95"><path d="M380,644.0 L371,637.0 M380,644.0 L371,644.0 M380,644.0 L371,651.0"/></g>
<path d="M330,374.0 H354 V864.0 H380" fill="none" stroke="#3b6fd4" stroke-width="1.5" stroke-linejoin="round" opacity=".8"/>
<circle cx="330" cy="374.0" r="3.4" fill="#3b6fd4"/>
<g stroke="#3b6fd4" stroke-width="1.6" fill="none" opacity=".95"><path d="M380,864.0 L371,857.0 M380,864.0 L371,864.0 M380,864.0 L371,871.0"/></g>
<path d="M330,134.0 H332 V1024.0 H380" fill="none" stroke="#2f7a68" stroke-width="1.5" stroke-linejoin="round" opacity=".8"/>
<circle cx="330" cy="134.0" r="3.4" fill="#2f7a68"/>
<g stroke="#2f7a68" stroke-width="1.6" fill="none" opacity=".95"><path d="M380,1024.0 L371,1017.0 M380,1024.0 L371,1024.0 M380,1024.0 L371,1031.0"/></g>
<path d="M330,374.0 H343 V1044.0 H380" fill="none" stroke="#3b6fd4" stroke-width="1.5" stroke-linejoin="round" opacity=".8"/>
<circle cx="330" cy="374.0" r="3.4" fill="#3b6fd4"/>
<g stroke="#3b6fd4" stroke-width="1.6" fill="none" opacity=".95"><path d="M380,1044.0 L371,1037.0 M380,1044.0 L371,1044.0 M380,1044.0 L371,1051.0"/></g>
<path d="M670,344.0 H672 V364.0 H720" fill="none" stroke="#c2761a" stroke-width="1.5" stroke-linejoin="round" opacity=".8"/>
<circle cx="670" cy="344.0" r="3.4" fill="#c2761a"/>
<g stroke="#c2761a" stroke-width="1.6" fill="none" opacity=".95"><path d="M720,364.0 L711,357.0 M720,364.0 L711,364.0 M720,364.0 L711,371.0"/></g>
<path d="M40,374.0 H18 V1308 H683 V384.0 H720" fill="none" stroke="#3b6fd4" stroke-width="1.5" stroke-linejoin="round" opacity=".8"/>
<circle cx="40" cy="374.0" r="3.4" fill="#3b6fd4"/>
<g stroke="#3b6fd4" stroke-width="1.6" fill="none" opacity=".95"><path d="M720,384.0 L711,377.0 M720,384.0 L711,384.0 M720,384.0 L711,391.0"/></g>
<path d="M670,344.0 H694 V624.0 H720" fill="none" stroke="#c2761a" stroke-width="1.5" stroke-linejoin="round" opacity=".8"/>
<circle cx="670" cy="344.0" r="3.4" fill="#c2761a"/>
<g stroke="#c2761a" stroke-width="1.6" fill="none" opacity=".95"><path d="M720,624.0 L711,617.0 M720,624.0 L711,624.0 M720,624.0 L711,631.0"/></g>
<path d="M40,374.0 H27 V1319 H672 V864.0 H720" fill="none" stroke="#3b6fd4" stroke-width="1.5" stroke-linejoin="round" opacity=".8"/>
<circle cx="40" cy="374.0" r="3.4" fill="#3b6fd4"/>
<g stroke="#3b6fd4" stroke-width="1.6" fill="none" opacity=".95"><path d="M720,864.0 L711,857.0 M720,864.0 L711,864.0 M720,864.0 L711,871.0"/></g>
<path d="M670,344.0 H683 V884.0 H720" fill="none" stroke="#c2761a" stroke-width="1.5" stroke-linejoin="round" opacity=".8"/>
<circle cx="670" cy="344.0" r="3.4" fill="#c2761a"/>
<g stroke="#c2761a" stroke-width="1.6" fill="none" opacity=".95"><path d="M720,884.0 L711,877.0 M720,884.0 L711,884.0 M720,884.0 L711,891.0"/></g>
<path d="M1010,844.0 H1012 V824.0 H1060" fill="none" stroke="#7047c4" stroke-width="1.5" stroke-linejoin="round" opacity=".8"/>
<circle cx="1010" cy="844.0" r="3.4" fill="#7047c4"/>
<g stroke="#7047c4" stroke-width="1.6" fill="none" opacity=".95"><path d="M1060,824.0 L1051,817.0 M1060,824.0 L1051,824.0 M1060,824.0 L1051,831.0"/></g>
<path d="M1010,844.0 H1023 V1074.0 H1060" fill="none" stroke="#7047c4" stroke-width="1.5" stroke-linejoin="round" opacity=".8"/>
<circle cx="1010" cy="844.0" r="3.4" fill="#7047c4"/>
<g stroke="#7047c4" stroke-width="1.6" fill="none" opacity=".95"><path d="M1060,1074.0 L1051,1067.0 M1060,1074.0 L1051,1074.0 M1060,1074.0 L1051,1081.0"/></g>
<path d="M40,134.0 H18 V1332 H1034 V1094.0 H1060" fill="none" stroke="#2f7a68" stroke-width="1.5" stroke-linejoin="round" opacity=".8"/>
<circle cx="40" cy="134.0" r="3.4" fill="#2f7a68"/>
<g stroke="#2f7a68" stroke-width="1.6" fill="none" opacity=".95"><path d="M1060,1094.0 L1051,1087.0 M1060,1094.0 L1051,1094.0 M1060,1094.0 L1051,1101.0"/></g>
<path d="M1350,1054.0 H1352 V944.0 H1400" fill="none" stroke="#7047c4" stroke-width="1.5" stroke-linejoin="round" opacity=".8"/>
<circle cx="1350" cy="1054.0" r="3.4" fill="#7047c4"/>
<g stroke="#7047c4" stroke-width="1.6" fill="none" opacity=".95"><path d="M1400,944.0 L1391,937.0 M1400,944.0 L1391,944.0 M1400,944.0 L1391,951.0"/></g>
<path d="M1350,804.0 H1363 V964.0 H1400" fill="none" stroke="#7047c4" stroke-width="1.5" stroke-linejoin="round" opacity=".8"/>
<circle cx="1350" cy="804.0" r="3.4" fill="#7047c4"/>
<g stroke="#7047c4" stroke-width="1.6" fill="none" opacity=".95"><path d="M1400,964.0 L1391,957.0 M1400,964.0 L1391,964.0 M1400,964.0 L1391,971.0"/></g>
<rect x="40" y="90" width="290" height="144" rx="9" fill="#ffffff" stroke="#3b6fd4" stroke-width="1.5"/>
<path d="M40,124 h290 v-25 a9,9 0 0 0 -9,-9 h-272 a9,9 0 0 0 -9,9 z" fill="#eef4ff"/>
<text x="52" y="112" font-size="14.5" font-weight="700" fill="#3b6fd4">users</text>
<text x="52" y="138" font-size="11.5" font-weight="700" fill="#15181d">🔑id</text>
<text x="318" y="138" text-anchor="end" font-size="10.5" fill="#9aa1ab">uuid</text>
<line x1="41" y1="144" x2="329" y2="144" stroke="#eef0f3"/>
<text x="52" y="158" font-size="11.5" font-weight="500" fill="#374151">email</text>
<text x="318" y="158" text-anchor="end" font-size="10.5" fill="#9aa1ab">text</text>
<line x1="41" y1="164" x2="329" y2="164" stroke="#eef0f3"/>
<text x="52" y="178" font-size="11.5" font-weight="500" fill="#374151">name</text>
<text x="318" y="178" text-anchor="end" font-size="10.5" fill="#9aa1ab">text</text>
<line x1="41" y1="184" x2="329" y2="184" stroke="#eef0f3"/>
<text x="52" y="198" font-size="11.5" font-weight="500" fill="#374151">role</text>
<text x="318" y="198" text-anchor="end" font-size="10.5" fill="#9aa1ab">text  admin|instructor|ta|student</text>
<line x1="41" y1="204" x2="329" y2="204" stroke="#eef0f3"/>
<text x="52" y="218" font-size="11.5" font-weight="500" fill="#374151">created_at</text>
<text x="318" y="218" text-anchor="end" font-size="10.5" fill="#9aa1ab">timestamptz</text>
<rect x="40" y="330" width="290" height="164" rx="9" fill="#ffffff" stroke="#3b6fd4" stroke-width="1.5"/>
<path d="M40,364 h290 v-25 a9,9 0 0 0 -9,-9 h-272 a9,9 0 0 0 -9,9 z" fill="#eef4ff"/>
<text x="52" y="352" font-size="14.5" font-weight="700" fill="#3b6fd4">courses</text>
<text x="52" y="378" font-size="11.5" font-weight="700" fill="#15181d">🔑id</text>
<text x="318" y="378" text-anchor="end" font-size="10.5" fill="#9aa1ab">uuid</text>
<line x1="41" y1="384" x2="329" y2="384" stroke="#eef0f3"/>
<text x="52" y="398" font-size="11.5" font-weight="500" fill="#374151">code</text>
<text x="318" y="398" text-anchor="end" font-size="10.5" fill="#9aa1ab">text</text>
<line x1="41" y1="404" x2="329" y2="404" stroke="#eef0f3"/>
<text x="52" y="418" font-size="11.5" font-weight="500" fill="#374151">name</text>
<text x="318" y="418" text-anchor="end" font-size="10.5" fill="#9aa1ab">text</text>
<line x1="41" y1="424" x2="329" y2="424" stroke="#eef0f3"/>
<text x="52" y="438" font-size="11.5" font-weight="500" fill="#374151">term</text>
<text x="318" y="438" text-anchor="end" font-size="10.5" fill="#9aa1ab">text</text>
<line x1="41" y1="444" x2="329" y2="444" stroke="#eef0f3"/>
<text x="52" y="458" font-size="11.5" font-weight="500" fill="#15181d">🔗instructor_id</text>
<text x="318" y="458" text-anchor="end" font-size="10.5" fill="#9aa1ab">uuid  → users</text>
<line x1="41" y1="464" x2="329" y2="464" stroke="#eef0f3"/>
<text x="52" y="478" font-size="11.5" font-weight="500" fill="#374151">created_at</text>
<text x="318" y="478" text-anchor="end" font-size="10.5" fill="#9aa1ab">timestamptz</text>
<rect x="380" y="90" width="290" height="144" rx="9" fill="#ffffff" stroke="#3b6fd4" stroke-width="1.5"/>
<path d="M380,124 h290 v-25 a9,9 0 0 0 -9,-9 h-272 a9,9 0 0 0 -9,9 z" fill="#eef4ff"/>
<text x="392" y="112" font-size="14.5" font-weight="700" fill="#3b6fd4">enrollments</text>
<text x="392" y="138" font-size="11.5" font-weight="700" fill="#15181d">🔑id</text>
<text x="658" y="138" text-anchor="end" font-size="10.5" fill="#9aa1ab">uuid</text>
<line x1="381" y1="144" x2="669" y2="144" stroke="#eef0f3"/>
<text x="392" y="158" font-size="11.5" font-weight="500" fill="#15181d">🔗user_id</text>
<text x="658" y="158" text-anchor="end" font-size="10.5" fill="#9aa1ab">uuid  → users</text>
<line x1="381" y1="164" x2="669" y2="164" stroke="#eef0f3"/>
<text x="392" y="178" font-size="11.5" font-weight="500" fill="#15181d">🔗course_id</text>
<text x="658" y="178" text-anchor="end" font-size="10.5" fill="#9aa1ab">uuid  → courses</text>
<line x1="381" y1="184" x2="669" y2="184" stroke="#eef0f3"/>
<text x="392" y="198" font-size="11.5" font-weight="500" fill="#374151">role</text>
<text x="658" y="198" text-anchor="end" font-size="10.5" fill="#9aa1ab">text</text>
<line x1="381" y1="204" x2="669" y2="204" stroke="#eef0f3"/>
<text x="392" y="218" font-size="11.5" font-weight="500" fill="#374151">enrolled_at</text>
<text x="658" y="218" text-anchor="end" font-size="10.5" fill="#9aa1ab">timestamptz</text>
<rect x="380" y="300" width="290" height="204" rx="9" fill="#ffffff" stroke="#c2761a" stroke-width="1.5"/>
<path d="M380,334 h290 v-25 a9,9 0 0 0 -9,-9 h-272 a9,9 0 0 0 -9,9 z" fill="#fff6e9"/>
<text x="392" y="322" font-size="14.5" font-weight="700" fill="#c2761a">materials</text>
<text x="392" y="348" font-size="11.5" font-weight="700" fill="#15181d">🔑id</text>
<text x="658" y="348" text-anchor="end" font-size="10.5" fill="#9aa1ab">uuid</text>
<line x1="381" y1="354" x2="669" y2="354" stroke="#eef0f3"/>
<text x="392" y="368" font-size="11.5" font-weight="500" fill="#15181d">🔗course_id</text>
<text x="658" y="368" text-anchor="end" font-size="10.5" fill="#9aa1ab">uuid  → courses</text>
<line x1="381" y1="374" x2="669" y2="374" stroke="#eef0f3"/>
<text x="392" y="388" font-size="11.5" font-weight="500" fill="#374151">title</text>
<text x="658" y="388" text-anchor="end" font-size="10.5" fill="#9aa1ab">text</text>
<line x1="381" y1="394" x2="669" y2="394" stroke="#eef0f3"/>
<text x="392" y="408" font-size="11.5" font-weight="500" fill="#374151">file_path</text>
<text x="658" y="408" text-anchor="end" font-size="10.5" fill="#9aa1ab">text</text>
<line x1="381" y1="414" x2="669" y2="414" stroke="#eef0f3"/>
<text x="392" y="428" font-size="11.5" font-weight="500" fill="#374151">status</text>
<text x="658" y="428" text-anchor="end" font-size="10.5" fill="#9aa1ab">text  draft|processing|approved|archived</text>
<line x1="381" y1="434" x2="669" y2="434" stroke="#eef0f3"/>
<text x="392" y="448" font-size="11.5" font-weight="500" fill="#374151">approved_for_ai</text>
<text x="658" y="448" text-anchor="end" font-size="10.5" fill="#9aa1ab">boolean</text>
<line x1="381" y1="454" x2="669" y2="454" stroke="#eef0f3"/>
<text x="392" y="468" font-size="11.5" font-weight="500" fill="#15181d">🔗uploaded_by</text>
<text x="658" y="468" text-anchor="end" font-size="10.5" fill="#9aa1ab">uuid  → users</text>
<line x1="381" y1="474" x2="669" y2="474" stroke="#eef0f3"/>
<text x="392" y="488" font-size="11.5" font-weight="500" fill="#374151">created_at</text>
<text x="658" y="488" text-anchor="end" font-size="10.5" fill="#9aa1ab">timestamptz</text>
<rect x="380" y="560" width="290" height="184" rx="9" fill="#ffffff" stroke="#127a52" stroke-width="1.5"/>
<path d="M380,594 h290 v-25 a9,9 0 0 0 -9,-9 h-272 a9,9 0 0 0 -9,9 z" fill="#eafaf2"/>
<text x="392" y="582" font-size="14.5" font-weight="700" fill="#127a52">private_notes</text>
<text x="658" y="582" text-anchor="end" font-size="11" font-weight="700" fill="#127a52">🔒 FORCE RLS</text>
<text x="392" y="608" font-size="11.5" font-weight="700" fill="#15181d">🔑id</text>
<text x="658" y="608" text-anchor="end" font-size="10.5" fill="#9aa1ab">uuid</text>
<line x1="381" y1="614" x2="669" y2="614" stroke="#eef0f3"/>
<text x="392" y="628" font-size="11.5" font-weight="500" fill="#15181d">🔗owner_id</text>
<text x="658" y="628" text-anchor="end" font-size="10.5" fill="#9aa1ab">uuid  → users</text>
<line x1="381" y1="634" x2="669" y2="634" stroke="#eef0f3"/>
<text x="392" y="648" font-size="11.5" font-weight="500" fill="#15181d">🔗course_id</text>
<text x="658" y="648" text-anchor="end" font-size="10.5" fill="#9aa1ab">uuid  → courses</text>
<line x1="381" y1="654" x2="669" y2="654" stroke="#eef0f3"/>
<text x="392" y="668" font-size="11.5" font-weight="500" fill="#374151">title</text>
<text x="658" y="668" text-anchor="end" font-size="10.5" fill="#9aa1ab">text</text>
<line x1="381" y1="674" x2="669" y2="674" stroke="#eef0f3"/>
<text x="392" y="688" font-size="11.5" font-weight="500" fill="#374151">content</text>
<text x="658" y="688" text-anchor="end" font-size="10.5" fill="#9aa1ab">text</text>
<line x1="381" y1="694" x2="669" y2="694" stroke="#eef0f3"/>
<text x="392" y="708" font-size="11.5" font-weight="500" fill="#374151">created_at</text>
<text x="658" y="708" text-anchor="end" font-size="10.5" fill="#9aa1ab">timestamptz</text>
<line x1="381" y1="714" x2="669" y2="714" stroke="#eef0f3"/>
<text x="392" y="728" font-size="11.5" font-weight="500" fill="#374151">updated_at</text>
<text x="658" y="728" text-anchor="end" font-size="10.5" fill="#9aa1ab">timestamptz</text>
<rect x="380" y="800" width="290" height="124" rx="9" fill="#ffffff" stroke="#127a52" stroke-width="1.5"/>
<path d="M380,834 h290 v-25 a9,9 0 0 0 -9,-9 h-272 a9,9 0 0 0 -9,9 z" fill="#eafaf2"/>
<text x="392" y="822" font-size="14.5" font-weight="700" fill="#127a52">anonymous_feedback</text>
<text x="392" y="848" font-size="11.5" font-weight="700" fill="#15181d">🔑id</text>
<text x="658" y="848" text-anchor="end" font-size="10.5" fill="#9aa1ab">uuid</text>
<line x1="381" y1="854" x2="669" y2="854" stroke="#eef0f3"/>
<text x="392" y="868" font-size="11.5" font-weight="500" fill="#15181d">🔗course_id</text>
<text x="658" y="868" text-anchor="end" font-size="10.5" fill="#9aa1ab">uuid  → courses</text>
<line x1="381" y1="874" x2="669" y2="874" stroke="#eef0f3"/>
<text x="392" y="888" font-size="11.5" font-weight="500" fill="#374151">content</text>
<text x="658" y="888" text-anchor="end" font-size="10.5" fill="#9aa1ab">text</text>
<line x1="381" y1="894" x2="669" y2="894" stroke="#eef0f3"/>
<text x="392" y="908" font-size="11.5" font-weight="500" fill="#374151">submitted_at</text>
<text x="658" y="908" text-anchor="end" font-size="10.5" fill="#9aa1ab">timestamptz</text>
<rect x="380" y="960" width="290" height="224" rx="9" fill="#ffffff" stroke="#127a52" stroke-width="1.5"/>
<path d="M380,994 h290 v-25 a9,9 0 0 0 -9,-9 h-272 a9,9 0 0 0 -9,9 z" fill="#eafaf2"/>
<text x="392" y="982" font-size="14.5" font-weight="700" fill="#127a52">student_scores</text>
<text x="392" y="1008" font-size="11.5" font-weight="700" fill="#15181d">🔑id</text>
<text x="658" y="1008" text-anchor="end" font-size="10.5" fill="#9aa1ab">uuid</text>
<line x1="381" y1="1014" x2="669" y2="1014" stroke="#eef0f3"/>
<text x="392" y="1028" font-size="11.5" font-weight="500" fill="#15181d">🔗student_id</text>
<text x="658" y="1028" text-anchor="end" font-size="10.5" fill="#9aa1ab">uuid  → users</text>
<line x1="381" y1="1034" x2="669" y2="1034" stroke="#eef0f3"/>
<text x="392" y="1048" font-size="11.5" font-weight="500" fill="#15181d">🔗course_id</text>
<text x="658" y="1048" text-anchor="end" font-size="10.5" fill="#9aa1ab">uuid  → courses</text>
<line x1="381" y1="1054" x2="669" y2="1054" stroke="#eef0f3"/>
<text x="392" y="1068" font-size="11.5" font-weight="500" fill="#374151">streak_days</text>
<text x="658" y="1068" text-anchor="end" font-size="10.5" fill="#9aa1ab">integer</text>
<line x1="381" y1="1074" x2="669" y2="1074" stroke="#eef0f3"/>
<text x="392" y="1088" font-size="11.5" font-weight="500" fill="#374151">quiz_score</text>
<text x="658" y="1088" text-anchor="end" font-size="10.5" fill="#9aa1ab">numeric(5,2)</text>
<line x1="381" y1="1094" x2="669" y2="1094" stroke="#eef0f3"/>
<text x="392" y="1108" font-size="11.5" font-weight="500" fill="#374151">comprehensive_score</text>
<text x="658" y="1108" text-anchor="end" font-size="10.5" fill="#9aa1ab">numeric(5,2)</text>
<line x1="381" y1="1114" x2="669" y2="1114" stroke="#eef0f3"/>
<text x="392" y="1128" font-size="11.5" font-weight="500" fill="#374151">active_score</text>
<text x="658" y="1128" text-anchor="end" font-size="10.5" fill="#9aa1ab">numeric(5,2)</text>
<line x1="381" y1="1134" x2="669" y2="1134" stroke="#eef0f3"/>
<text x="392" y="1148" font-size="11.5" font-weight="500" fill="#374151">last_active_date</text>
<text x="658" y="1148" text-anchor="end" font-size="10.5" fill="#9aa1ab">date</text>
<line x1="381" y1="1154" x2="669" y2="1154" stroke="#eef0f3"/>
<text x="392" y="1168" font-size="11.5" font-weight="500" fill="#374151">updated_at</text>
<text x="658" y="1168" text-anchor="end" font-size="10.5" fill="#9aa1ab">timestamptz</text>
<rect x="720" y="300" width="290" height="184" rx="9" fill="#ffffff" stroke="#c2761a" stroke-width="1.5"/>
<path d="M720,334 h290 v-25 a9,9 0 0 0 -9,-9 h-272 a9,9 0 0 0 -9,9 z" fill="#fff6e9"/>
<text x="732" y="322" font-size="14.5" font-weight="700" fill="#c2761a">week_classifications</text>
<text x="732" y="348" font-size="11.5" font-weight="700" fill="#15181d">🔑id</text>
<text x="998" y="348" text-anchor="end" font-size="10.5" fill="#9aa1ab">uuid</text>
<line x1="721" y1="354" x2="1009" y2="354" stroke="#eef0f3"/>
<text x="732" y="368" font-size="11.5" font-weight="500" fill="#15181d">🔗material_id</text>
<text x="998" y="368" text-anchor="end" font-size="10.5" fill="#9aa1ab">uuid  → materials</text>
<line x1="721" y1="374" x2="1009" y2="374" stroke="#eef0f3"/>
<text x="732" y="388" font-size="11.5" font-weight="500" fill="#15181d">🔗course_id</text>
<text x="998" y="388" text-anchor="end" font-size="10.5" fill="#9aa1ab">uuid  → courses</text>
<line x1="721" y1="394" x2="1009" y2="394" stroke="#eef0f3"/>
<text x="732" y="408" font-size="11.5" font-weight="500" fill="#374151">week_number</text>
<text x="998" y="408" text-anchor="end" font-size="10.5" fill="#9aa1ab">integer</text>
<line x1="721" y1="414" x2="1009" y2="414" stroke="#eef0f3"/>
<text x="732" y="428" font-size="11.5" font-weight="500" fill="#374151">lesson_title</text>
<text x="998" y="428" text-anchor="end" font-size="10.5" fill="#9aa1ab">text</text>
<line x1="721" y1="434" x2="1009" y2="434" stroke="#eef0f3"/>
<text x="732" y="448" font-size="11.5" font-weight="500" fill="#15181d">🔗classified_by</text>
<text x="998" y="448" text-anchor="end" font-size="10.5" fill="#9aa1ab">uuid  → users</text>
<line x1="721" y1="454" x2="1009" y2="454" stroke="#eef0f3"/>
<text x="732" y="468" font-size="11.5" font-weight="500" fill="#374151">classified_at</text>
<text x="998" y="468" text-anchor="end" font-size="10.5" fill="#9aa1ab">timestamptz</text>
<rect x="720" y="540" width="290" height="184" rx="9" fill="#ffffff" stroke="#c2761a" stroke-width="1.5"/>
<path d="M720,574 h290 v-25 a9,9 0 0 0 -9,-9 h-272 a9,9 0 0 0 -9,9 z" fill="#fff6e9"/>
<text x="732" y="562" font-size="14.5" font-weight="700" fill="#c2761a">question_banks</text>
<text x="732" y="588" font-size="11.5" font-weight="700" fill="#15181d">🔑id</text>
<text x="998" y="588" text-anchor="end" font-size="10.5" fill="#9aa1ab">uuid</text>
<line x1="721" y1="594" x2="1009" y2="594" stroke="#eef0f3"/>
<text x="732" y="608" font-size="11.5" font-weight="500" fill="#15181d">🔗course_id</text>
<text x="998" y="608" text-anchor="end" font-size="10.5" fill="#9aa1ab">uuid  → courses</text>
<line x1="721" y1="614" x2="1009" y2="614" stroke="#eef0f3"/>
<text x="732" y="628" font-size="11.5" font-weight="500" fill="#15181d">🔗material_id</text>
<text x="998" y="628" text-anchor="end" font-size="10.5" fill="#9aa1ab">uuid  → materials</text>
<line x1="721" y1="634" x2="1009" y2="634" stroke="#eef0f3"/>
<text x="732" y="648" font-size="11.5" font-weight="500" fill="#374151">title</text>
<text x="998" y="648" text-anchor="end" font-size="10.5" fill="#9aa1ab">text</text>
<line x1="721" y1="654" x2="1009" y2="654" stroke="#eef0f3"/>
<text x="732" y="668" font-size="11.5" font-weight="500" fill="#374151">file_path</text>
<text x="998" y="668" text-anchor="end" font-size="10.5" fill="#9aa1ab">text</text>
<line x1="721" y1="674" x2="1009" y2="674" stroke="#eef0f3"/>
<text x="732" y="688" font-size="11.5" font-weight="500" fill="#15181d">🔗uploaded_by</text>
<text x="998" y="688" text-anchor="end" font-size="10.5" fill="#9aa1ab">uuid  → users</text>
<line x1="721" y1="694" x2="1009" y2="694" stroke="#eef0f3"/>
<text x="732" y="708" font-size="11.5" font-weight="500" fill="#374151">uploaded_at</text>
<text x="998" y="708" text-anchor="end" font-size="10.5" fill="#9aa1ab">timestamptz</text>
<rect x="720" y="800" width="290" height="304" rx="9" fill="#ffffff" stroke="#7047c4" stroke-width="1.5"/>
<path d="M720,834 h290 v-25 a9,9 0 0 0 -9,-9 h-272 a9,9 0 0 0 -9,9 z" fill="#f3edff"/>
<text x="732" y="822" font-size="14.5" font-weight="700" fill="#7047c4">quizzes</text>
<text x="732" y="848" font-size="11.5" font-weight="700" fill="#15181d">🔑id</text>
<text x="998" y="848" text-anchor="end" font-size="10.5" fill="#9aa1ab">uuid</text>
<line x1="721" y1="854" x2="1009" y2="854" stroke="#eef0f3"/>
<text x="732" y="868" font-size="11.5" font-weight="500" fill="#15181d">🔗course_id</text>
<text x="998" y="868" text-anchor="end" font-size="10.5" fill="#9aa1ab">uuid  → courses</text>
<line x1="721" y1="874" x2="1009" y2="874" stroke="#eef0f3"/>
<text x="732" y="888" font-size="11.5" font-weight="500" fill="#15181d">🔗material_id</text>
<text x="998" y="888" text-anchor="end" font-size="10.5" fill="#9aa1ab">uuid  → materials</text>
<line x1="721" y1="894" x2="1009" y2="894" stroke="#eef0f3"/>
<text x="732" y="908" font-size="11.5" font-weight="500" fill="#374151">week_number</text>
<text x="998" y="908" text-anchor="end" font-size="10.5" fill="#9aa1ab">integer</text>
<line x1="721" y1="914" x2="1009" y2="914" stroke="#eef0f3"/>
<text x="732" y="928" font-size="11.5" font-weight="500" fill="#374151">title</text>
<text x="998" y="928" text-anchor="end" font-size="10.5" fill="#9aa1ab">text</text>
<line x1="721" y1="934" x2="1009" y2="934" stroke="#eef0f3"/>
<text x="732" y="948" font-size="11.5" font-weight="500" fill="#374151">quiz_type</text>
<text x="998" y="948" text-anchor="end" font-size="10.5" fill="#9aa1ab">text  lesson|comprehensive</text>
<line x1="721" y1="954" x2="1009" y2="954" stroke="#eef0f3"/>
<text x="732" y="968" font-size="11.5" font-weight="500" fill="#374151">source</text>
<text x="998" y="968" text-anchor="end" font-size="10.5" fill="#9aa1ab">text  manual|ai_draft</text>
<line x1="721" y1="974" x2="1009" y2="974" stroke="#eef0f3"/>
<text x="732" y="988" font-size="11.5" font-weight="500" fill="#374151">status</text>
<text x="998" y="988" text-anchor="end" font-size="10.5" fill="#9aa1ab">text  draft|published|archived</text>
<line x1="721" y1="994" x2="1009" y2="994" stroke="#eef0f3"/>
<text x="732" y="1008" font-size="11.5" font-weight="500" fill="#374151">points_per_question</text>
<text x="998" y="1008" text-anchor="end" font-size="10.5" fill="#9aa1ab">numeric(5,2)</text>
<line x1="721" y1="1014" x2="1009" y2="1014" stroke="#eef0f3"/>
<text x="732" y="1028" font-size="11.5" font-weight="500" fill="#374151">time_limit_seconds</text>
<text x="998" y="1028" text-anchor="end" font-size="10.5" fill="#9aa1ab">integer</text>
<line x1="721" y1="1034" x2="1009" y2="1034" stroke="#eef0f3"/>
<text x="732" y="1048" font-size="11.5" font-weight="500" fill="#15181d">🔗created_by</text>
<text x="998" y="1048" text-anchor="end" font-size="10.5" fill="#9aa1ab">uuid  → users</text>
<line x1="721" y1="1054" x2="1009" y2="1054" stroke="#eef0f3"/>
<text x="732" y="1068" font-size="11.5" font-weight="500" fill="#374151">created_at</text>
<text x="998" y="1068" text-anchor="end" font-size="10.5" fill="#9aa1ab">timestamptz</text>
<line x1="721" y1="1074" x2="1009" y2="1074" stroke="#eef0f3"/>
<text x="732" y="1088" font-size="11.5" font-weight="500" fill="#374151">updated_at</text>
<text x="998" y="1088" text-anchor="end" font-size="10.5" fill="#9aa1ab">timestamptz</text>
<rect x="1060" y="760" width="290" height="204" rx="9" fill="#ffffff" stroke="#7047c4" stroke-width="1.5"/>
<path d="M1060,794 h290 v-25 a9,9 0 0 0 -9,-9 h-272 a9,9 0 0 0 -9,9 z" fill="#f3edff"/>
<text x="1072" y="782" font-size="14.5" font-weight="700" fill="#7047c4">quiz_questions</text>
<text x="1072" y="808" font-size="11.5" font-weight="700" fill="#15181d">🔑id</text>
<text x="1338" y="808" text-anchor="end" font-size="10.5" fill="#9aa1ab">uuid</text>
<line x1="1061" y1="814" x2="1349" y2="814" stroke="#eef0f3"/>
<text x="1072" y="828" font-size="11.5" font-weight="500" fill="#15181d">🔗quiz_id</text>
<text x="1338" y="828" text-anchor="end" font-size="10.5" fill="#9aa1ab">uuid  → quizzes</text>
<line x1="1061" y1="834" x2="1349" y2="834" stroke="#eef0f3"/>
<text x="1072" y="848" font-size="11.5" font-weight="500" fill="#374151">position</text>
<text x="1338" y="848" text-anchor="end" font-size="10.5" fill="#9aa1ab">integer</text>
<line x1="1061" y1="854" x2="1349" y2="854" stroke="#eef0f3"/>
<text x="1072" y="868" font-size="11.5" font-weight="500" fill="#374151">question_type</text>
<text x="1338" y="868" text-anchor="end" font-size="10.5" fill="#9aa1ab">text  multiple_choice|short_answer</text>
<line x1="1061" y1="874" x2="1349" y2="874" stroke="#eef0f3"/>
<text x="1072" y="888" font-size="11.5" font-weight="500" fill="#374151">prompt</text>
<text x="1338" y="888" text-anchor="end" font-size="10.5" fill="#9aa1ab">text</text>
<line x1="1061" y1="894" x2="1349" y2="894" stroke="#eef0f3"/>
<text x="1072" y="908" font-size="11.5" font-weight="500" fill="#374151">options</text>
<text x="1338" y="908" text-anchor="end" font-size="10.5" fill="#9aa1ab">jsonb</text>
<line x1="1061" y1="914" x2="1349" y2="914" stroke="#eef0f3"/>
<text x="1072" y="928" font-size="11.5" font-weight="500" fill="#374151">correct_answer</text>
<text x="1338" y="928" text-anchor="end" font-size="10.5" fill="#b45309">text</text>
<line x1="1061" y1="934" x2="1349" y2="934" stroke="#eef0f3"/>
<text x="1072" y="948" font-size="11.5" font-weight="500" fill="#374151">explanation</text>
<text x="1338" y="948" text-anchor="end" font-size="10.5" fill="#b45309">text</text>
<rect x="1060" y="1010" width="290" height="264" rx="9" fill="#ffffff" stroke="#7047c4" stroke-width="1.5"/>
<path d="M1060,1044 h290 v-25 a9,9 0 0 0 -9,-9 h-272 a9,9 0 0 0 -9,9 z" fill="#f3edff"/>
<text x="1072" y="1032" font-size="14.5" font-weight="700" fill="#7047c4">quiz_attempts</text>
<text x="1072" y="1058" font-size="11.5" font-weight="700" fill="#15181d">🔑id</text>
<text x="1338" y="1058" text-anchor="end" font-size="10.5" fill="#9aa1ab">uuid</text>
<line x1="1061" y1="1064" x2="1349" y2="1064" stroke="#eef0f3"/>
<text x="1072" y="1078" font-size="11.5" font-weight="500" fill="#15181d">🔗quiz_id</text>
<text x="1338" y="1078" text-anchor="end" font-size="10.5" fill="#9aa1ab">uuid  → quizzes</text>
<line x1="1061" y1="1084" x2="1349" y2="1084" stroke="#eef0f3"/>
<text x="1072" y="1098" font-size="11.5" font-weight="500" fill="#15181d">🔗student_id</text>
<text x="1338" y="1098" text-anchor="end" font-size="10.5" fill="#9aa1ab">uuid  → users</text>
<line x1="1061" y1="1104" x2="1349" y2="1104" stroke="#eef0f3"/>
<text x="1072" y="1118" font-size="11.5" font-weight="500" fill="#15181d">🔗course_id</text>
<text x="1338" y="1118" text-anchor="end" font-size="10.5" fill="#9aa1ab">uuid  → courses</text>
<line x1="1061" y1="1124" x2="1349" y2="1124" stroke="#eef0f3"/>
<text x="1072" y="1138" font-size="11.5" font-weight="500" fill="#374151">attempt_number</text>
<text x="1338" y="1138" text-anchor="end" font-size="10.5" fill="#9aa1ab">integer</text>
<line x1="1061" y1="1144" x2="1349" y2="1144" stroke="#eef0f3"/>
<text x="1072" y="1158" font-size="11.5" font-weight="500" fill="#374151">correct_count</text>
<text x="1338" y="1158" text-anchor="end" font-size="10.5" fill="#9aa1ab">integer</text>
<line x1="1061" y1="1164" x2="1349" y2="1164" stroke="#eef0f3"/>
<text x="1072" y="1178" font-size="11.5" font-weight="500" fill="#374151">total_questions</text>
<text x="1338" y="1178" text-anchor="end" font-size="10.5" fill="#9aa1ab">integer</text>
<line x1="1061" y1="1184" x2="1349" y2="1184" stroke="#eef0f3"/>
<text x="1072" y="1198" font-size="11.5" font-weight="500" fill="#374151">score</text>
<text x="1338" y="1198" text-anchor="end" font-size="10.5" fill="#9aa1ab">numeric(6,2)</text>
<line x1="1061" y1="1204" x2="1349" y2="1204" stroke="#eef0f3"/>
<text x="1072" y="1218" font-size="11.5" font-weight="500" fill="#374151">max_score</text>
<text x="1338" y="1218" text-anchor="end" font-size="10.5" fill="#9aa1ab">numeric(6,2)</text>
<line x1="1061" y1="1224" x2="1349" y2="1224" stroke="#eef0f3"/>
<text x="1072" y="1238" font-size="11.5" font-weight="500" fill="#374151">points_awarded</text>
<text x="1338" y="1238" text-anchor="end" font-size="10.5" fill="#9aa1ab">numeric(5,2)</text>
<line x1="1061" y1="1244" x2="1349" y2="1244" stroke="#eef0f3"/>
<text x="1072" y="1258" font-size="11.5" font-weight="500" fill="#374151">submitted_at</text>
<text x="1338" y="1258" text-anchor="end" font-size="10.5" fill="#9aa1ab">timestamptz</text>
<rect x="1400" y="880" width="290" height="144" rx="9" fill="#ffffff" stroke="#7047c4" stroke-width="1.5"/>
<path d="M1400,914 h290 v-25 a9,9 0 0 0 -9,-9 h-272 a9,9 0 0 0 -9,9 z" fill="#f3edff"/>
<text x="1412" y="902" font-size="14.5" font-weight="700" fill="#7047c4">quiz_attempt_answers</text>
<text x="1412" y="928" font-size="11.5" font-weight="700" fill="#15181d">🔑id</text>
<text x="1678" y="928" text-anchor="end" font-size="10.5" fill="#9aa1ab">uuid</text>
<line x1="1401" y1="934" x2="1689" y2="934" stroke="#eef0f3"/>
<text x="1412" y="948" font-size="11.5" font-weight="500" fill="#15181d">🔗attempt_id</text>
<text x="1678" y="948" text-anchor="end" font-size="10.5" fill="#9aa1ab">uuid  → quiz_attempts</text>
<line x1="1401" y1="954" x2="1689" y2="954" stroke="#eef0f3"/>
<text x="1412" y="968" font-size="11.5" font-weight="500" fill="#15181d">🔗question_id</text>
<text x="1678" y="968" text-anchor="end" font-size="10.5" fill="#9aa1ab">uuid  → quiz_questions</text>
<line x1="1401" y1="974" x2="1689" y2="974" stroke="#eef0f3"/>
<text x="1412" y="988" font-size="11.5" font-weight="500" fill="#374151">submitted_answer</text>
<text x="1678" y="988" text-anchor="end" font-size="10.5" fill="#9aa1ab">text</text>
<line x1="1401" y1="994" x2="1689" y2="994" stroke="#eef0f3"/>
<text x="1412" y="1008" font-size="11.5" font-weight="500" fill="#374151">is_correct</text>
<text x="1678" y="1008" text-anchor="end" font-size="10.5" fill="#9aa1ab">boolean</text>
<rect x="1400" y="90" width="290" height="700" rx="9" fill="#ffffff" stroke="#d8dce2"/>
<text x="1414" y="116" font-size="14" font-weight="700" fill="#15181d">Chú giải</text>
<text x="1414" y="142" font-size="11.5" font-weight="700" fill="#15181d">🔑 khóa chính · 🔗 khóa ngoại</text>
<text x="1414" y="161" font-size="11.5" font-weight="400" fill="#6b7280">● = phía 1   ⋔ = phía nhiều</text>
<text x="1414" y="180" font-size="11.5" font-weight="400" fill="#6b7280">* = NOT NULL · U = UNIQUE</text>
<text x="1414" y="207" font-size="11.5" font-weight="700" fill="#3b6fd4">■ Danh tính &amp; phân quyền</text>
<text x="1414" y="226" font-size="11.5" font-weight="400" fill="#6b7280">users, courses, enrollments —</text>
<text x="1414" y="245" font-size="11.5" font-weight="400" fill="#6b7280">enrollments là nguồn chân lý</text>
<text x="1414" y="264" font-size="11.5" font-weight="400" fill="#6b7280">cho mọi kiểm tra quyền truy cập.</text>
<text x="1414" y="291" font-size="11.5" font-weight="700" fill="#c2761a">■ Nội dung &amp; duyệt</text>
<text x="1414" y="310" font-size="11.5" font-weight="400" fill="#6b7280">materials.status + approved_for_ai</text>
<text x="1414" y="329" font-size="11.5" font-weight="400" fill="#6b7280">quyết định SV thấy gì; giảng viên</text>
<text x="1414" y="348" font-size="11.5" font-weight="400" fill="#6b7280">tự phân loại tuần trong</text>
<text x="1414" y="367" font-size="11.5" font-weight="400" fill="#6b7280">week_classifications.</text>
<text x="1414" y="394" font-size="11.5" font-weight="700" fill="#7047c4">■ Quiz &amp; chấm điểm</text>
<text x="1414" y="413" font-size="11.5" font-weight="400" fill="#6b7280">quiz_questions.correct_answer và</text>
<text x="1414" y="432" font-size="11.5" font-weight="400" fill="#6b7280">.explanation (🔒) không bao giờ</text>
<text x="1414" y="451" font-size="11.5" font-weight="400" fill="#6b7280">rời server trước khi SV nộp bài.</text>
<text x="1414" y="470" font-size="11.5" font-weight="400" fill="#6b7280">Server chấm rồi ghi điểm vào</text>
<text x="1414" y="489" font-size="11.5" font-weight="400" fill="#6b7280">quiz_attempts.points_awarded —</text>
<text x="1414" y="508" font-size="11.5" font-weight="400" fill="#6b7280">chỉ lần nộp đầu tiên được cộng.</text>
<text x="1414" y="535" font-size="11.5" font-weight="700" fill="#127a52">■ Riêng tư &amp; ghi nhận</text>
<text x="1414" y="554" font-size="11.5" font-weight="400" fill="#6b7280">private_notes bật FORCE ROW LEVEL</text>
<text x="1414" y="573" font-size="11.5" font-weight="400" fill="#6b7280">SECURITY: policy so owner_id với</text>
<text x="1414" y="592" font-size="11.5" font-weight="400" fill="#6b7280">app.current_user_id của phiên,</text>
<text x="1414" y="611" font-size="11.5" font-weight="400" fill="#6b7280">nên SV khác, giảng viên và admin</text>
<text x="1414" y="630" font-size="11.5" font-weight="400" fill="#6b7280">đều nhận 0 dòng.</text>
<text x="1414" y="649" font-size="11.5" font-weight="400" fill="#6b7280">anonymous_feedback cố tình KHÔNG</text>
<text x="1414" y="668" font-size="11.5" font-weight="400" fill="#6b7280">có cột tác giả.</text>
<text x="1414" y="695" font-size="11.5" font-weight="400" fill="#6b7280">student_scores.total = streak×2</text>
<text x="1414" y="714" font-size="11.5" font-weight="400" fill="#6b7280">+ quiz + comprehensive + active.</text>
</svg>